<svg id="svg2" xmlns="http://www.w3.org/2000/svg" viewBox="0 0 152.83 152.89"><defs><style>.cls-1{fill:#062c92;}</style></defs><title>zurich-logo</title><g id="layer1"><g id="g3065"><path id="path11306" class="cls-1" d="M76.44,0A76.45,76.45,0,0,0,15.66,122.8l63.5-83.53-6.78.06H65.53a108.77,108.77,0,0,0-18.93,1.42A20.48,20.48,0,0,0,38.84,44C36.25,45.74,33.11,49.5,31,53.2c-.25.43-.55,1.11-1,2l-3.76-.8,6.23-24h79.59L48.89,114.91a81.82,81.82,0,0,1,9.06-.43c2.59,0,6.47.12,11.65.43l11.22.68c4.07.25,7.52.37,10.11.37,5.79,0,9.56-.43,13.32-1.6a28.44,28.44,0,0,0,8.14-3.95,38.33,38.33,0,0,0,11.34-12.95c.25-.49.68-1.23,1.17-2.22l3.33.86a48,48,0,0,1-3.33,9.49c-3.39,7.58-7.21,12.7-12.51,16.58a30.82,30.82,0,0,1-18.49,6.1H92.78c-5.24,0-9.31-.43-21.89-2.34-12.76-2-19.3-2.65-25.71-2.65a75.44,75.44,0,0,0-12.45,1,40.59,40.59,0,0,0-12.64,3.82A76.43,76.43,0,1,0,76.44,0"/></g></g></svg>